<mxfile host="app.diagrams.net" agent="Mozilla/5.0 (Windows NT 10.0; Win64; x64) AppleWebKit/537.36 (KHTML, like Gecko) Chrome/136.0.0.0 Safari/537.36" version="27.0.6">
  <diagram name="Page-1" id="_FXMfpS7jll7LSz3-s2L">
    <mxGraphModel dx="1722" dy="2734" grid="1" gridSize="10" guides="1" tooltips="1" connect="1" arrows="1" fold="1" page="1" pageScale="1" pageWidth="850" pageHeight="1100" math="0" shadow="0">
      <root>
        <mxCell id="0" />
        <mxCell id="1" parent="0" />
        <mxCell id="zZnaNhnLFqcrOaJklrno-10" style="edgeStyle=orthogonalEdgeStyle;rounded=0;orthogonalLoop=1;jettySize=auto;html=1;entryX=0.5;entryY=0;entryDx=0;entryDy=0;" edge="1" parent="1" source="zZnaNhnLFqcrOaJklrno-1" target="zZnaNhnLFqcrOaJklrno-4">
          <mxGeometry relative="1" as="geometry" />
        </mxCell>
        <mxCell id="zZnaNhnLFqcrOaJklrno-11" style="edgeStyle=orthogonalEdgeStyle;rounded=0;orthogonalLoop=1;jettySize=auto;html=1;entryX=0.5;entryY=0;entryDx=0;entryDy=0;" edge="1" parent="1" source="zZnaNhnLFqcrOaJklrno-1" target="zZnaNhnLFqcrOaJklrno-9">
          <mxGeometry relative="1" as="geometry" />
        </mxCell>
        <mxCell id="zZnaNhnLFqcrOaJklrno-12" style="edgeStyle=orthogonalEdgeStyle;rounded=0;orthogonalLoop=1;jettySize=auto;html=1;entryX=0.5;entryY=0;entryDx=0;entryDy=0;" edge="1" parent="1" source="zZnaNhnLFqcrOaJklrno-1" target="zZnaNhnLFqcrOaJklrno-8">
          <mxGeometry relative="1" as="geometry" />
        </mxCell>
        <mxCell id="zZnaNhnLFqcrOaJklrno-13" style="edgeStyle=orthogonalEdgeStyle;rounded=0;orthogonalLoop=1;jettySize=auto;html=1;entryX=0.5;entryY=0;entryDx=0;entryDy=0;" edge="1" parent="1" source="zZnaNhnLFqcrOaJklrno-1" target="zZnaNhnLFqcrOaJklrno-3">
          <mxGeometry relative="1" as="geometry" />
        </mxCell>
        <mxCell id="zZnaNhnLFqcrOaJklrno-14" style="edgeStyle=orthogonalEdgeStyle;rounded=0;orthogonalLoop=1;jettySize=auto;html=1;entryX=0.5;entryY=0;entryDx=0;entryDy=0;" edge="1" parent="1" source="zZnaNhnLFqcrOaJklrno-1" target="zZnaNhnLFqcrOaJklrno-7">
          <mxGeometry relative="1" as="geometry" />
        </mxCell>
        <mxCell id="zZnaNhnLFqcrOaJklrno-15" style="edgeStyle=orthogonalEdgeStyle;rounded=0;orthogonalLoop=1;jettySize=auto;html=1;" edge="1" parent="1" source="zZnaNhnLFqcrOaJklrno-1" target="zZnaNhnLFqcrOaJklrno-6">
          <mxGeometry relative="1" as="geometry" />
        </mxCell>
        <mxCell id="zZnaNhnLFqcrOaJklrno-16" style="edgeStyle=orthogonalEdgeStyle;rounded=0;orthogonalLoop=1;jettySize=auto;html=1;entryX=0.5;entryY=0;entryDx=0;entryDy=0;" edge="1" parent="1" source="zZnaNhnLFqcrOaJklrno-1" target="zZnaNhnLFqcrOaJklrno-5">
          <mxGeometry relative="1" as="geometry" />
        </mxCell>
        <mxCell id="zZnaNhnLFqcrOaJklrno-17" style="edgeStyle=orthogonalEdgeStyle;rounded=0;orthogonalLoop=1;jettySize=auto;html=1;entryX=0.5;entryY=0;entryDx=0;entryDy=0;" edge="1" parent="1" source="zZnaNhnLFqcrOaJklrno-1" target="zZnaNhnLFqcrOaJklrno-2">
          <mxGeometry relative="1" as="geometry">
            <mxPoint x="940" y="-2120" as="targetPoint" />
          </mxGeometry>
        </mxCell>
        <mxCell id="zZnaNhnLFqcrOaJklrno-1" value="&lt;font style=&quot;font-size: 19px;&quot;&gt;car rental website&lt;/font&gt;" style="rounded=1;whiteSpace=wrap;html=1;" vertex="1" parent="1">
          <mxGeometry x="290" y="-2180" width="250" height="60" as="geometry" />
        </mxCell>
        <mxCell id="zZnaNhnLFqcrOaJklrno-39" style="edgeStyle=orthogonalEdgeStyle;rounded=0;orthogonalLoop=1;jettySize=auto;html=1;" edge="1" parent="1" source="zZnaNhnLFqcrOaJklrno-2" target="zZnaNhnLFqcrOaJklrno-33">
          <mxGeometry relative="1" as="geometry" />
        </mxCell>
        <mxCell id="zZnaNhnLFqcrOaJklrno-40" style="edgeStyle=orthogonalEdgeStyle;rounded=0;orthogonalLoop=1;jettySize=auto;html=1;entryX=0.5;entryY=0;entryDx=0;entryDy=0;" edge="1" parent="1" source="zZnaNhnLFqcrOaJklrno-2" target="zZnaNhnLFqcrOaJklrno-32">
          <mxGeometry relative="1" as="geometry" />
        </mxCell>
        <mxCell id="zZnaNhnLFqcrOaJklrno-41" style="edgeStyle=orthogonalEdgeStyle;rounded=0;orthogonalLoop=1;jettySize=auto;html=1;entryX=0.5;entryY=0;entryDx=0;entryDy=0;" edge="1" parent="1" source="zZnaNhnLFqcrOaJklrno-2" target="zZnaNhnLFqcrOaJklrno-34">
          <mxGeometry relative="1" as="geometry" />
        </mxCell>
        <mxCell id="zZnaNhnLFqcrOaJklrno-42" style="edgeStyle=orthogonalEdgeStyle;rounded=0;orthogonalLoop=1;jettySize=auto;html=1;entryX=0.5;entryY=0;entryDx=0;entryDy=0;" edge="1" parent="1" source="zZnaNhnLFqcrOaJklrno-2" target="zZnaNhnLFqcrOaJklrno-35">
          <mxGeometry relative="1" as="geometry" />
        </mxCell>
        <mxCell id="zZnaNhnLFqcrOaJklrno-43" style="edgeStyle=orthogonalEdgeStyle;rounded=0;orthogonalLoop=1;jettySize=auto;html=1;entryX=0.5;entryY=0;entryDx=0;entryDy=0;" edge="1" parent="1" source="zZnaNhnLFqcrOaJklrno-2" target="zZnaNhnLFqcrOaJklrno-36">
          <mxGeometry relative="1" as="geometry" />
        </mxCell>
        <mxCell id="zZnaNhnLFqcrOaJklrno-44" style="edgeStyle=orthogonalEdgeStyle;rounded=0;orthogonalLoop=1;jettySize=auto;html=1;entryX=0.5;entryY=0;entryDx=0;entryDy=0;" edge="1" parent="1" source="zZnaNhnLFqcrOaJklrno-2" target="zZnaNhnLFqcrOaJklrno-37">
          <mxGeometry relative="1" as="geometry" />
        </mxCell>
        <mxCell id="zZnaNhnLFqcrOaJklrno-2" value="&lt;font style=&quot;font-size: 14px;&quot;&gt;admin system access&lt;/font&gt;" style="rounded=1;whiteSpace=wrap;html=1;" vertex="1" parent="1">
          <mxGeometry x="1200" y="-2080" width="120" height="60" as="geometry" />
        </mxCell>
        <mxCell id="zZnaNhnLFqcrOaJklrno-28" style="edgeStyle=orthogonalEdgeStyle;rounded=0;orthogonalLoop=1;jettySize=auto;html=1;entryX=0.5;entryY=0;entryDx=0;entryDy=0;" edge="1" parent="1" source="zZnaNhnLFqcrOaJklrno-3" target="zZnaNhnLFqcrOaJklrno-20">
          <mxGeometry relative="1" as="geometry" />
        </mxCell>
        <mxCell id="zZnaNhnLFqcrOaJklrno-29" style="edgeStyle=orthogonalEdgeStyle;rounded=0;orthogonalLoop=1;jettySize=auto;html=1;entryX=0.5;entryY=0;entryDx=0;entryDy=0;" edge="1" parent="1" source="zZnaNhnLFqcrOaJklrno-3" target="zZnaNhnLFqcrOaJklrno-21">
          <mxGeometry relative="1" as="geometry" />
        </mxCell>
        <mxCell id="zZnaNhnLFqcrOaJklrno-3" value="&lt;font style=&quot;font-size: 14px;&quot;&gt;rental process module&lt;/font&gt;" style="rounded=1;whiteSpace=wrap;html=1;" vertex="1" parent="1">
          <mxGeometry x="380" y="-2060" width="120" height="60" as="geometry" />
        </mxCell>
        <mxCell id="zZnaNhnLFqcrOaJklrno-4" value="&lt;font style=&quot;font-size: 14px;&quot;&gt;request handler&lt;/font&gt;" style="rounded=1;whiteSpace=wrap;html=1;" vertex="1" parent="1">
          <mxGeometry x="-30" y="-2060" width="120" height="60" as="geometry" />
        </mxCell>
        <mxCell id="zZnaNhnLFqcrOaJklrno-26" style="edgeStyle=orthogonalEdgeStyle;rounded=0;orthogonalLoop=1;jettySize=auto;html=1;entryX=0;entryY=0.5;entryDx=0;entryDy=0;" edge="1" parent="1" source="zZnaNhnLFqcrOaJklrno-5" target="zZnaNhnLFqcrOaJklrno-24">
          <mxGeometry relative="1" as="geometry">
            <Array as="points">
              <mxPoint x="860" y="-1980" />
              <mxPoint x="770" y="-1980" />
              <mxPoint x="770" y="-1820" />
            </Array>
          </mxGeometry>
        </mxCell>
        <mxCell id="zZnaNhnLFqcrOaJklrno-5" value="&lt;font style=&quot;font-size: 14px;&quot;&gt;static page display&lt;/font&gt;" style="rounded=1;whiteSpace=wrap;html=1;" vertex="1" parent="1">
          <mxGeometry x="800" y="-2060" width="120" height="60" as="geometry" />
        </mxCell>
        <mxCell id="zZnaNhnLFqcrOaJklrno-108" style="edgeStyle=orthogonalEdgeStyle;rounded=0;orthogonalLoop=1;jettySize=auto;html=1;entryX=0.5;entryY=0;entryDx=0;entryDy=0;" edge="1" parent="1" source="zZnaNhnLFqcrOaJklrno-6" target="zZnaNhnLFqcrOaJklrno-90">
          <mxGeometry relative="1" as="geometry" />
        </mxCell>
        <mxCell id="zZnaNhnLFqcrOaJklrno-6" value="&lt;font style=&quot;font-size: 14px;&quot;&gt;offers display&lt;/font&gt;" style="rounded=1;whiteSpace=wrap;html=1;" vertex="1" parent="1">
          <mxGeometry x="660" y="-2060" width="120" height="60" as="geometry" />
        </mxCell>
        <mxCell id="zZnaNhnLFqcrOaJklrno-27" style="edgeStyle=orthogonalEdgeStyle;rounded=0;orthogonalLoop=1;jettySize=auto;html=1;" edge="1" parent="1" source="zZnaNhnLFqcrOaJklrno-7" target="zZnaNhnLFqcrOaJklrno-22">
          <mxGeometry relative="1" as="geometry" />
        </mxCell>
        <mxCell id="zZnaNhnLFqcrOaJklrno-7" value="&lt;font style=&quot;font-size: 14px;&quot;&gt;user profile module&lt;/font&gt;" style="rounded=1;whiteSpace=wrap;html=1;" vertex="1" parent="1">
          <mxGeometry x="510" y="-2060" width="120" height="60" as="geometry" />
        </mxCell>
        <mxCell id="zZnaNhnLFqcrOaJklrno-30" style="edgeStyle=orthogonalEdgeStyle;rounded=0;orthogonalLoop=1;jettySize=auto;html=1;entryX=0.5;entryY=0;entryDx=0;entryDy=0;" edge="1" parent="1" source="zZnaNhnLFqcrOaJklrno-8" target="zZnaNhnLFqcrOaJklrno-19">
          <mxGeometry relative="1" as="geometry" />
        </mxCell>
        <mxCell id="zZnaNhnLFqcrOaJklrno-8" value="&lt;font style=&quot;font-size: 14px;&quot;&gt;car browsing module&lt;/font&gt;" style="rounded=1;whiteSpace=wrap;html=1;" vertex="1" parent="1">
          <mxGeometry x="250" y="-2060" width="120" height="60" as="geometry" />
        </mxCell>
        <mxCell id="zZnaNhnLFqcrOaJklrno-31" style="edgeStyle=orthogonalEdgeStyle;rounded=0;orthogonalLoop=1;jettySize=auto;html=1;entryX=0.5;entryY=0;entryDx=0;entryDy=0;" edge="1" parent="1" source="zZnaNhnLFqcrOaJklrno-9" target="zZnaNhnLFqcrOaJklrno-18">
          <mxGeometry relative="1" as="geometry" />
        </mxCell>
        <mxCell id="zZnaNhnLFqcrOaJklrno-9" value="&lt;font style=&quot;font-size: 14px;&quot;&gt;authentiction handler&lt;/font&gt;" style="rounded=1;whiteSpace=wrap;html=1;" vertex="1" parent="1">
          <mxGeometry x="110" y="-2060" width="120" height="60" as="geometry" />
        </mxCell>
        <mxCell id="zZnaNhnLFqcrOaJklrno-18" value="&lt;font style=&quot;font-size: 14px;&quot;&gt;process login&amp;nbsp;&lt;/font&gt;" style="rounded=1;whiteSpace=wrap;html=1;" vertex="1" parent="1">
          <mxGeometry x="-10" y="-1940" width="120" height="60" as="geometry" />
        </mxCell>
        <mxCell id="zZnaNhnLFqcrOaJklrno-19" value="&lt;font style=&quot;font-size: 14px;&quot;&gt;display car list function&lt;/font&gt;" style="rounded=1;whiteSpace=wrap;html=1;" vertex="1" parent="1">
          <mxGeometry x="220" y="-1950" width="120" height="60" as="geometry" />
        </mxCell>
        <mxCell id="zZnaNhnLFqcrOaJklrno-20" value="display rental form function" style="rounded=1;whiteSpace=wrap;html=1;fontSize=14;" vertex="1" parent="1">
          <mxGeometry x="330" y="-1880" width="120" height="60" as="geometry" />
        </mxCell>
        <mxCell id="zZnaNhnLFqcrOaJklrno-21" value="&lt;font style=&quot;font-size: 14px;&quot;&gt;handel rental submission&lt;/font&gt;" style="rounded=1;whiteSpace=wrap;html=1;" vertex="1" parent="1">
          <mxGeometry x="460" y="-1880" width="120" height="60" as="geometry" />
        </mxCell>
        <mxCell id="zZnaNhnLFqcrOaJklrno-22" value="&lt;font style=&quot;font-size: 14px;&quot;&gt;display profile function&lt;/font&gt;" style="rounded=1;whiteSpace=wrap;html=1;" vertex="1" parent="1">
          <mxGeometry x="520" y="-1970" width="120" height="60" as="geometry" />
        </mxCell>
        <mxCell id="zZnaNhnLFqcrOaJklrno-23" value="&lt;font style=&quot;font-size: 14px;&quot;&gt;display about us page&lt;/font&gt;" style="rounded=1;whiteSpace=wrap;html=1;" vertex="1" parent="1">
          <mxGeometry x="790" y="-1950" width="120" height="60" as="geometry" />
        </mxCell>
        <mxCell id="zZnaNhnLFqcrOaJklrno-97" style="edgeStyle=orthogonalEdgeStyle;rounded=0;orthogonalLoop=1;jettySize=auto;html=1;" edge="1" parent="1" source="zZnaNhnLFqcrOaJklrno-24" target="zZnaNhnLFqcrOaJklrno-90">
          <mxGeometry relative="1" as="geometry" />
        </mxCell>
        <mxCell id="zZnaNhnLFqcrOaJklrno-24" value="&lt;font style=&quot;font-size: 14px;&quot;&gt;contact us&lt;/font&gt;" style="rounded=1;whiteSpace=wrap;html=1;arcSize=17;" vertex="1" parent="1">
          <mxGeometry x="790" y="-1850" width="120" height="60" as="geometry" />
        </mxCell>
        <mxCell id="zZnaNhnLFqcrOaJklrno-25" style="edgeStyle=orthogonalEdgeStyle;rounded=0;orthogonalLoop=1;jettySize=auto;html=1;entryX=0.558;entryY=-0.05;entryDx=0;entryDy=0;entryPerimeter=0;" edge="1" parent="1" source="zZnaNhnLFqcrOaJklrno-5" target="zZnaNhnLFqcrOaJklrno-23">
          <mxGeometry relative="1" as="geometry" />
        </mxCell>
        <mxCell id="zZnaNhnLFqcrOaJklrno-100" style="edgeStyle=orthogonalEdgeStyle;rounded=0;orthogonalLoop=1;jettySize=auto;html=1;entryX=0.5;entryY=0;entryDx=0;entryDy=0;" edge="1" parent="1" source="zZnaNhnLFqcrOaJklrno-32" target="zZnaNhnLFqcrOaJklrno-73">
          <mxGeometry relative="1" as="geometry" />
        </mxCell>
        <mxCell id="zZnaNhnLFqcrOaJklrno-102" style="edgeStyle=orthogonalEdgeStyle;rounded=0;orthogonalLoop=1;jettySize=auto;html=1;entryX=0;entryY=0.5;entryDx=0;entryDy=0;" edge="1" parent="1" source="zZnaNhnLFqcrOaJklrno-32" target="zZnaNhnLFqcrOaJklrno-75">
          <mxGeometry relative="1" as="geometry">
            <Array as="points">
              <mxPoint x="1110" y="-1920" />
              <mxPoint x="1040" y="-1920" />
              <mxPoint x="1040" y="-1720" />
            </Array>
          </mxGeometry>
        </mxCell>
        <mxCell id="zZnaNhnLFqcrOaJklrno-103" style="edgeStyle=orthogonalEdgeStyle;rounded=0;orthogonalLoop=1;jettySize=auto;html=1;entryX=0;entryY=0.5;entryDx=0;entryDy=0;" edge="1" parent="1" source="zZnaNhnLFqcrOaJklrno-32" target="zZnaNhnLFqcrOaJklrno-76">
          <mxGeometry relative="1" as="geometry">
            <Array as="points">
              <mxPoint x="1110" y="-1920" />
              <mxPoint x="1040" y="-1920" />
              <mxPoint x="1040" y="-1620" />
            </Array>
          </mxGeometry>
        </mxCell>
        <mxCell id="zZnaNhnLFqcrOaJklrno-32" value="&lt;font style=&quot;font-size: 14px;&quot;&gt;admin user management&lt;/font&gt;" style="rounded=1;whiteSpace=wrap;html=1;" vertex="1" parent="1">
          <mxGeometry x="1050" y="-1990" width="120" height="60" as="geometry" />
        </mxCell>
        <mxCell id="zZnaNhnLFqcrOaJklrno-33" value="&lt;font style=&quot;font-size: 14px;&quot;&gt;admin rental management&lt;/font&gt;" style="rounded=1;whiteSpace=wrap;html=1;" vertex="1" parent="1">
          <mxGeometry x="920" y="-1990" width="120" height="60" as="geometry" />
        </mxCell>
        <mxCell id="zZnaNhnLFqcrOaJklrno-57" style="edgeStyle=orthogonalEdgeStyle;rounded=0;orthogonalLoop=1;jettySize=auto;html=1;entryX=0;entryY=0.75;entryDx=0;entryDy=0;" edge="1" parent="1" source="zZnaNhnLFqcrOaJklrno-34" target="zZnaNhnLFqcrOaJklrno-51">
          <mxGeometry relative="1" as="geometry">
            <Array as="points">
              <mxPoint x="1260" y="-1920" />
              <mxPoint x="1195" y="-1920" />
              <mxPoint x="1195" y="-1785" />
            </Array>
          </mxGeometry>
        </mxCell>
        <mxCell id="zZnaNhnLFqcrOaJklrno-58" style="edgeStyle=orthogonalEdgeStyle;rounded=0;orthogonalLoop=1;jettySize=auto;html=1;entryX=0;entryY=0.75;entryDx=0;entryDy=0;" edge="1" parent="1" source="zZnaNhnLFqcrOaJklrno-34" target="zZnaNhnLFqcrOaJklrno-53">
          <mxGeometry relative="1" as="geometry">
            <Array as="points">
              <mxPoint x="1260" y="-1920" />
              <mxPoint x="1195" y="-1920" />
              <mxPoint x="1195" y="-1715" />
            </Array>
          </mxGeometry>
        </mxCell>
        <mxCell id="zZnaNhnLFqcrOaJklrno-60" style="edgeStyle=orthogonalEdgeStyle;rounded=0;orthogonalLoop=1;jettySize=auto;html=1;entryX=0;entryY=0.5;entryDx=0;entryDy=0;" edge="1" parent="1" source="zZnaNhnLFqcrOaJklrno-34" target="zZnaNhnLFqcrOaJklrno-55">
          <mxGeometry relative="1" as="geometry">
            <Array as="points">
              <mxPoint x="1260" y="-1920" />
              <mxPoint x="1195" y="-1920" />
              <mxPoint x="1195" y="-1580" />
            </Array>
          </mxGeometry>
        </mxCell>
        <mxCell id="zZnaNhnLFqcrOaJklrno-34" value="&lt;font style=&quot;font-size: 14px;&quot;&gt;admin offer managment&lt;/font&gt;" style="rounded=1;whiteSpace=wrap;html=1;" vertex="1" parent="1">
          <mxGeometry x="1200" y="-1990" width="120" height="60" as="geometry" />
        </mxCell>
        <mxCell id="zZnaNhnLFqcrOaJklrno-80" style="edgeStyle=orthogonalEdgeStyle;rounded=0;orthogonalLoop=1;jettySize=auto;html=1;" edge="1" parent="1" source="zZnaNhnLFqcrOaJklrno-35" target="zZnaNhnLFqcrOaJklrno-79">
          <mxGeometry relative="1" as="geometry" />
        </mxCell>
        <mxCell id="zZnaNhnLFqcrOaJklrno-81" style="edgeStyle=orthogonalEdgeStyle;rounded=0;orthogonalLoop=1;jettySize=auto;html=1;entryX=0;entryY=0.5;entryDx=0;entryDy=0;" edge="1" parent="1" source="zZnaNhnLFqcrOaJklrno-35" target="zZnaNhnLFqcrOaJklrno-78">
          <mxGeometry relative="1" as="geometry" />
        </mxCell>
        <mxCell id="zZnaNhnLFqcrOaJklrno-82" style="edgeStyle=orthogonalEdgeStyle;rounded=0;orthogonalLoop=1;jettySize=auto;html=1;entryX=0;entryY=0.75;entryDx=0;entryDy=0;" edge="1" parent="1" source="zZnaNhnLFqcrOaJklrno-35" target="zZnaNhnLFqcrOaJklrno-77">
          <mxGeometry relative="1" as="geometry">
            <Array as="points">
              <mxPoint x="1490" y="-1920" />
              <mxPoint x="1420" y="-1920" />
              <mxPoint x="1420" y="-1655" />
            </Array>
          </mxGeometry>
        </mxCell>
        <mxCell id="zZnaNhnLFqcrOaJklrno-84" style="edgeStyle=orthogonalEdgeStyle;rounded=0;orthogonalLoop=1;jettySize=auto;html=1;entryX=0;entryY=0.75;entryDx=0;entryDy=0;" edge="1" parent="1" source="zZnaNhnLFqcrOaJklrno-35" target="zZnaNhnLFqcrOaJklrno-83">
          <mxGeometry relative="1" as="geometry">
            <Array as="points">
              <mxPoint x="1490" y="-1920" />
              <mxPoint x="1420" y="-1920" />
              <mxPoint x="1420" y="-1575" />
            </Array>
          </mxGeometry>
        </mxCell>
        <mxCell id="zZnaNhnLFqcrOaJklrno-35" value="&lt;font style=&quot;font-size: 14px;&quot;&gt;process role change request&lt;/font&gt;" style="rounded=1;whiteSpace=wrap;html=1;" vertex="1" parent="1">
          <mxGeometry x="1430" y="-1990" width="120" height="60" as="geometry" />
        </mxCell>
        <mxCell id="zZnaNhnLFqcrOaJklrno-48" style="edgeStyle=orthogonalEdgeStyle;rounded=0;orthogonalLoop=1;jettySize=auto;html=1;entryX=0.5;entryY=0;entryDx=0;entryDy=0;" edge="1" parent="1" source="zZnaNhnLFqcrOaJklrno-36" target="zZnaNhnLFqcrOaJklrno-47">
          <mxGeometry relative="1" as="geometry" />
        </mxCell>
        <mxCell id="zZnaNhnLFqcrOaJklrno-49" style="edgeStyle=orthogonalEdgeStyle;rounded=0;orthogonalLoop=1;jettySize=auto;html=1;entryX=0;entryY=0.5;entryDx=0;entryDy=0;" edge="1" parent="1" source="zZnaNhnLFqcrOaJklrno-36" target="zZnaNhnLFqcrOaJklrno-46">
          <mxGeometry relative="1" as="geometry">
            <Array as="points">
              <mxPoint x="1690" y="-1900" />
              <mxPoint x="1610" y="-1900" />
              <mxPoint x="1610" y="-1770" />
            </Array>
          </mxGeometry>
        </mxCell>
        <mxCell id="zZnaNhnLFqcrOaJklrno-50" style="edgeStyle=orthogonalEdgeStyle;rounded=0;orthogonalLoop=1;jettySize=auto;html=1;entryX=0;entryY=0.5;entryDx=0;entryDy=0;" edge="1" parent="1" source="zZnaNhnLFqcrOaJklrno-36" target="zZnaNhnLFqcrOaJklrno-45">
          <mxGeometry relative="1" as="geometry">
            <Array as="points">
              <mxPoint x="1690" y="-1900" />
              <mxPoint x="1610" y="-1900" />
              <mxPoint x="1610" y="-1690" />
            </Array>
          </mxGeometry>
        </mxCell>
        <mxCell id="zZnaNhnLFqcrOaJklrno-36" value="&lt;font style=&quot;font-size: 14px;&quot;&gt;admin rental&lt;/font&gt;" style="rounded=1;whiteSpace=wrap;html=1;" vertex="1" parent="1">
          <mxGeometry x="1630" y="-1990" width="120" height="60" as="geometry" />
        </mxCell>
        <mxCell id="zZnaNhnLFqcrOaJklrno-67" style="edgeStyle=orthogonalEdgeStyle;rounded=0;orthogonalLoop=1;jettySize=auto;html=1;entryX=0.5;entryY=0;entryDx=0;entryDy=0;" edge="1" parent="1" source="zZnaNhnLFqcrOaJklrno-37" target="zZnaNhnLFqcrOaJklrno-66">
          <mxGeometry relative="1" as="geometry" />
        </mxCell>
        <mxCell id="zZnaNhnLFqcrOaJklrno-68" style="edgeStyle=orthogonalEdgeStyle;rounded=0;orthogonalLoop=1;jettySize=auto;html=1;" edge="1" parent="1" source="zZnaNhnLFqcrOaJklrno-37" target="zZnaNhnLFqcrOaJklrno-65">
          <mxGeometry relative="1" as="geometry" />
        </mxCell>
        <mxCell id="zZnaNhnLFqcrOaJklrno-69" style="edgeStyle=orthogonalEdgeStyle;rounded=0;orthogonalLoop=1;jettySize=auto;html=1;entryX=0.5;entryY=0;entryDx=0;entryDy=0;" edge="1" parent="1" source="zZnaNhnLFqcrOaJklrno-37" target="zZnaNhnLFqcrOaJklrno-64">
          <mxGeometry relative="1" as="geometry" />
        </mxCell>
        <mxCell id="zZnaNhnLFqcrOaJklrno-70" style="edgeStyle=orthogonalEdgeStyle;rounded=0;orthogonalLoop=1;jettySize=auto;html=1;entryX=0.5;entryY=0;entryDx=0;entryDy=0;" edge="1" parent="1" source="zZnaNhnLFqcrOaJklrno-37" target="zZnaNhnLFqcrOaJklrno-63">
          <mxGeometry relative="1" as="geometry">
            <Array as="points">
              <mxPoint x="1880" y="-1920" />
              <mxPoint x="1950" y="-1920" />
            </Array>
          </mxGeometry>
        </mxCell>
        <mxCell id="zZnaNhnLFqcrOaJklrno-71" style="edgeStyle=orthogonalEdgeStyle;rounded=0;orthogonalLoop=1;jettySize=auto;html=1;entryX=0.5;entryY=0;entryDx=0;entryDy=0;" edge="1" parent="1" source="zZnaNhnLFqcrOaJklrno-37" target="zZnaNhnLFqcrOaJklrno-62">
          <mxGeometry relative="1" as="geometry" />
        </mxCell>
        <mxCell id="zZnaNhnLFqcrOaJklrno-72" style="edgeStyle=orthogonalEdgeStyle;rounded=0;orthogonalLoop=1;jettySize=auto;html=1;entryX=0.5;entryY=0;entryDx=0;entryDy=0;" edge="1" parent="1" source="zZnaNhnLFqcrOaJklrno-37" target="zZnaNhnLFqcrOaJklrno-61">
          <mxGeometry relative="1" as="geometry" />
        </mxCell>
        <mxCell id="zZnaNhnLFqcrOaJklrno-37" value="&lt;font style=&quot;font-size: 14px;&quot;&gt;admin car mmanagement&lt;/font&gt;" style="rounded=1;whiteSpace=wrap;html=1;" vertex="1" parent="1">
          <mxGeometry x="1820" y="-1990" width="120" height="60" as="geometry" />
        </mxCell>
        <mxCell id="zZnaNhnLFqcrOaJklrno-45" value="&lt;font style=&quot;font-size: 14px;&quot;&gt;process rental request&lt;/font&gt;" style="rounded=1;whiteSpace=wrap;html=1;" vertex="1" parent="1">
          <mxGeometry x="1630" y="-1720" width="120" height="60" as="geometry" />
        </mxCell>
        <mxCell id="zZnaNhnLFqcrOaJklrno-46" value="&lt;font style=&quot;font-size: 14px;&quot;&gt;view rental details&lt;/font&gt;" style="rounded=1;whiteSpace=wrap;html=1;" vertex="1" parent="1">
          <mxGeometry x="1630" y="-1800" width="120" height="60" as="geometry" />
        </mxCell>
        <mxCell id="zZnaNhnLFqcrOaJklrno-117" style="edgeStyle=orthogonalEdgeStyle;rounded=0;orthogonalLoop=1;jettySize=auto;html=1;entryX=0.5;entryY=0;entryDx=0;entryDy=0;" edge="1" parent="1" source="zZnaNhnLFqcrOaJklrno-47" target="zZnaNhnLFqcrOaJklrno-90">
          <mxGeometry relative="1" as="geometry" />
        </mxCell>
        <mxCell id="zZnaNhnLFqcrOaJklrno-47" value="&lt;font style=&quot;font-size: 14px;&quot;&gt;list all rentals function&lt;/font&gt;" style="rounded=1;whiteSpace=wrap;html=1;" vertex="1" parent="1">
          <mxGeometry x="1630" y="-1880" width="120" height="60" as="geometry" />
        </mxCell>
        <mxCell id="zZnaNhnLFqcrOaJklrno-112" style="edgeStyle=orthogonalEdgeStyle;rounded=0;orthogonalLoop=1;jettySize=auto;html=1;" edge="1" parent="1" source="zZnaNhnLFqcrOaJklrno-51" target="zZnaNhnLFqcrOaJklrno-90">
          <mxGeometry relative="1" as="geometry">
            <Array as="points">
              <mxPoint x="1380" y="-1800" />
              <mxPoint x="1380" y="-1620" />
              <mxPoint x="788" y="-1620" />
            </Array>
          </mxGeometry>
        </mxCell>
        <mxCell id="zZnaNhnLFqcrOaJklrno-51" value="&lt;font style=&quot;font-size: 14px;&quot;&gt;process delete offer&lt;/font&gt;" style="rounded=1;whiteSpace=wrap;html=1;" vertex="1" parent="1">
          <mxGeometry x="1215" y="-1830" width="120" height="60" as="geometry" />
        </mxCell>
        <mxCell id="zZnaNhnLFqcrOaJklrno-113" style="edgeStyle=orthogonalEdgeStyle;rounded=0;orthogonalLoop=1;jettySize=auto;html=1;" edge="1" parent="1" source="zZnaNhnLFqcrOaJklrno-52" target="zZnaNhnLFqcrOaJklrno-90">
          <mxGeometry relative="1" as="geometry">
            <Array as="points">
              <mxPoint x="1380" y="-1870" />
              <mxPoint x="1380" y="-1620" />
              <mxPoint x="788" y="-1620" />
            </Array>
          </mxGeometry>
        </mxCell>
        <mxCell id="zZnaNhnLFqcrOaJklrno-52" value="&lt;font style=&quot;font-size: 14px;&quot;&gt;process add offer function&lt;/font&gt;" style="rounded=1;whiteSpace=wrap;html=1;" vertex="1" parent="1">
          <mxGeometry x="1210" y="-1900" width="120" height="60" as="geometry" />
        </mxCell>
        <mxCell id="zZnaNhnLFqcrOaJklrno-111" style="edgeStyle=orthogonalEdgeStyle;rounded=0;orthogonalLoop=1;jettySize=auto;html=1;" edge="1" parent="1" source="zZnaNhnLFqcrOaJklrno-53" target="zZnaNhnLFqcrOaJklrno-90">
          <mxGeometry relative="1" as="geometry" />
        </mxCell>
        <mxCell id="zZnaNhnLFqcrOaJklrno-53" value="&lt;font style=&quot;font-size: 14px;&quot;&gt;show edit offer form&lt;/font&gt;" style="rounded=1;whiteSpace=wrap;html=1;" vertex="1" parent="1">
          <mxGeometry x="1215" y="-1760" width="120" height="60" as="geometry" />
        </mxCell>
        <mxCell id="zZnaNhnLFqcrOaJklrno-110" style="edgeStyle=orthogonalEdgeStyle;rounded=0;orthogonalLoop=1;jettySize=auto;html=1;" edge="1" parent="1" source="zZnaNhnLFqcrOaJklrno-54" target="zZnaNhnLFqcrOaJklrno-90">
          <mxGeometry relative="1" as="geometry">
            <Array as="points">
              <mxPoint x="1380" y="-1660" />
              <mxPoint x="1380" y="-1565" />
              <mxPoint x="788" y="-1565" />
            </Array>
          </mxGeometry>
        </mxCell>
        <mxCell id="zZnaNhnLFqcrOaJklrno-54" value="&lt;font style=&quot;font-size: 14px;&quot;&gt;show add function&lt;/font&gt;" style="rounded=1;whiteSpace=wrap;html=1;" vertex="1" parent="1">
          <mxGeometry x="1215" y="-1690" width="120" height="60" as="geometry" />
        </mxCell>
        <mxCell id="zZnaNhnLFqcrOaJklrno-109" style="edgeStyle=orthogonalEdgeStyle;rounded=0;orthogonalLoop=1;jettySize=auto;html=1;" edge="1" parent="1" source="zZnaNhnLFqcrOaJklrno-55" target="zZnaNhnLFqcrOaJklrno-90">
          <mxGeometry relative="1" as="geometry" />
        </mxCell>
        <mxCell id="zZnaNhnLFqcrOaJklrno-55" value="&lt;font style=&quot;font-size: 14px;&quot;&gt;process edit offer&lt;/font&gt;" style="rounded=1;whiteSpace=wrap;html=1;" vertex="1" parent="1">
          <mxGeometry x="1215" y="-1610" width="120" height="60" as="geometry" />
        </mxCell>
        <mxCell id="zZnaNhnLFqcrOaJklrno-56" style="edgeStyle=orthogonalEdgeStyle;rounded=0;orthogonalLoop=1;jettySize=auto;html=1;entryX=0.425;entryY=0.083;entryDx=0;entryDy=0;entryPerimeter=0;" edge="1" parent="1" source="zZnaNhnLFqcrOaJklrno-34" target="zZnaNhnLFqcrOaJklrno-52">
          <mxGeometry relative="1" as="geometry" />
        </mxCell>
        <mxCell id="zZnaNhnLFqcrOaJklrno-59" style="edgeStyle=orthogonalEdgeStyle;rounded=0;orthogonalLoop=1;jettySize=auto;html=1;entryX=0.008;entryY=0.633;entryDx=0;entryDy=0;entryPerimeter=0;" edge="1" parent="1" source="zZnaNhnLFqcrOaJklrno-34" target="zZnaNhnLFqcrOaJklrno-54">
          <mxGeometry relative="1" as="geometry">
            <Array as="points">
              <mxPoint x="1260" y="-1920" />
              <mxPoint x="1195" y="-1920" />
              <mxPoint x="1195" y="-1652" />
            </Array>
          </mxGeometry>
        </mxCell>
        <mxCell id="zZnaNhnLFqcrOaJklrno-122" style="edgeStyle=orthogonalEdgeStyle;rounded=0;orthogonalLoop=1;jettySize=auto;html=1;entryX=1;entryY=0.25;entryDx=0;entryDy=0;" edge="1" parent="1" source="zZnaNhnLFqcrOaJklrno-61" target="zZnaNhnLFqcrOaJklrno-90">
          <mxGeometry relative="1" as="geometry">
            <Array as="points">
              <mxPoint x="2030" y="-1640" />
              <mxPoint x="1685" y="-1640" />
              <mxPoint x="1685" y="-1485" />
            </Array>
          </mxGeometry>
        </mxCell>
        <mxCell id="zZnaNhnLFqcrOaJklrno-61" value="&lt;font style=&quot;font-size: 14px;&quot;&gt;show add car form&lt;/font&gt;" style="rounded=1;whiteSpace=wrap;html=1;" vertex="1" parent="1">
          <mxGeometry x="1970" y="-1710" width="120" height="60" as="geometry" />
        </mxCell>
        <mxCell id="zZnaNhnLFqcrOaJklrno-123" style="edgeStyle=orthogonalEdgeStyle;rounded=0;orthogonalLoop=1;jettySize=auto;html=1;entryX=1;entryY=0.5;entryDx=0;entryDy=0;" edge="1" parent="1" source="zZnaNhnLFqcrOaJklrno-62" target="zZnaNhnLFqcrOaJklrno-90">
          <mxGeometry relative="1" as="geometry">
            <Array as="points">
              <mxPoint x="2125" y="-1640" />
              <mxPoint x="1690" y="-1640" />
              <mxPoint x="1690" y="-1470" />
            </Array>
          </mxGeometry>
        </mxCell>
        <mxCell id="zZnaNhnLFqcrOaJklrno-62" value="&lt;font style=&quot;font-size: 14px;&quot;&gt;process add car&lt;/font&gt;" style="rounded=1;whiteSpace=wrap;html=1;" vertex="1" parent="1">
          <mxGeometry x="2065" y="-1790" width="120" height="60" as="geometry" />
        </mxCell>
        <mxCell id="zZnaNhnLFqcrOaJklrno-121" style="edgeStyle=orthogonalEdgeStyle;rounded=0;orthogonalLoop=1;jettySize=auto;html=1;" edge="1" parent="1" source="zZnaNhnLFqcrOaJklrno-63">
          <mxGeometry relative="1" as="geometry">
            <mxPoint x="1380" y="-1490" as="targetPoint" />
            <Array as="points">
              <mxPoint x="1950" y="-1810" />
              <mxPoint x="1381" y="-1810" />
            </Array>
          </mxGeometry>
        </mxCell>
        <mxCell id="zZnaNhnLFqcrOaJklrno-63" value="&lt;font style=&quot;font-size: 14px;&quot;&gt;list cars function&lt;/font&gt;" style="rounded=1;whiteSpace=wrap;html=1;" vertex="1" parent="1">
          <mxGeometry x="1890" y="-1800" width="120" height="60" as="geometry" />
        </mxCell>
        <mxCell id="zZnaNhnLFqcrOaJklrno-125" style="edgeStyle=orthogonalEdgeStyle;rounded=0;orthogonalLoop=1;jettySize=auto;html=1;entryX=1;entryY=0.5;entryDx=0;entryDy=0;" edge="1" parent="1" source="zZnaNhnLFqcrOaJklrno-64" target="zZnaNhnLFqcrOaJklrno-90">
          <mxGeometry relative="1" as="geometry">
            <Array as="points">
              <mxPoint x="2200" y="-1640" />
              <mxPoint x="1770" y="-1640" />
              <mxPoint x="1770" y="-1470" />
            </Array>
          </mxGeometry>
        </mxCell>
        <mxCell id="zZnaNhnLFqcrOaJklrno-64" value="&lt;font style=&quot;font-size: 14px;&quot;&gt;show edit car form&lt;/font&gt;" style="rounded=1;whiteSpace=wrap;html=1;" vertex="1" parent="1">
          <mxGeometry x="2140" y="-1900" width="120" height="60" as="geometry" />
        </mxCell>
        <mxCell id="zZnaNhnLFqcrOaJklrno-124" style="edgeStyle=orthogonalEdgeStyle;rounded=0;orthogonalLoop=1;jettySize=auto;html=1;" edge="1" parent="1" source="zZnaNhnLFqcrOaJklrno-65">
          <mxGeometry relative="1" as="geometry">
            <mxPoint x="1400" y="-1470" as="targetPoint" />
            <Array as="points">
              <mxPoint x="1401" y="-1900" />
            </Array>
          </mxGeometry>
        </mxCell>
        <mxCell id="zZnaNhnLFqcrOaJklrno-65" value="&lt;font style=&quot;font-size: 14px;&quot;&gt;process edit car&lt;/font&gt;" style="rounded=1;whiteSpace=wrap;html=1;" vertex="1" parent="1">
          <mxGeometry x="1980" y="-1900" width="120" height="60" as="geometry" />
        </mxCell>
        <mxCell id="zZnaNhnLFqcrOaJklrno-120" style="edgeStyle=orthogonalEdgeStyle;rounded=0;orthogonalLoop=1;jettySize=auto;html=1;" edge="1" parent="1" source="zZnaNhnLFqcrOaJklrno-66">
          <mxGeometry relative="1" as="geometry">
            <mxPoint x="1378" y="-1500" as="targetPoint" />
            <Array as="points">
              <mxPoint x="1880" y="-1810" />
              <mxPoint x="1379" y="-1810" />
            </Array>
          </mxGeometry>
        </mxCell>
        <mxCell id="zZnaNhnLFqcrOaJklrno-66" value="&lt;font style=&quot;font-size: 14px;&quot;&gt;process delete car&lt;/font&gt;" style="rounded=1;whiteSpace=wrap;html=1;" vertex="1" parent="1">
          <mxGeometry x="1820" y="-1900" width="120" height="60" as="geometry" />
        </mxCell>
        <mxCell id="zZnaNhnLFqcrOaJklrno-104" style="edgeStyle=orthogonalEdgeStyle;rounded=0;orthogonalLoop=1;jettySize=auto;html=1;" edge="1" parent="1" source="zZnaNhnLFqcrOaJklrno-73" target="zZnaNhnLFqcrOaJklrno-90">
          <mxGeometry relative="1" as="geometry">
            <Array as="points">
              <mxPoint x="920" y="-1880" />
              <mxPoint x="920" y="-1675" />
              <mxPoint x="738" y="-1675" />
            </Array>
          </mxGeometry>
        </mxCell>
        <mxCell id="zZnaNhnLFqcrOaJklrno-73" value="list users&amp;nbsp;" style="rounded=1;whiteSpace=wrap;html=1;fontSize=14;" vertex="1" parent="1">
          <mxGeometry x="1060" y="-1910" width="120" height="60" as="geometry" />
        </mxCell>
        <mxCell id="zZnaNhnLFqcrOaJklrno-74" value="view user details&amp;nbsp;" style="rounded=1;whiteSpace=wrap;html=1;fontSize=14;" vertex="1" parent="1">
          <mxGeometry x="1060" y="-1840" width="120" height="60" as="geometry" />
        </mxCell>
        <mxCell id="zZnaNhnLFqcrOaJklrno-106" style="edgeStyle=orthogonalEdgeStyle;rounded=0;orthogonalLoop=1;jettySize=auto;html=1;" edge="1" parent="1" source="zZnaNhnLFqcrOaJklrno-75">
          <mxGeometry relative="1" as="geometry">
            <mxPoint x="850" y="-1500" as="targetPoint" />
          </mxGeometry>
        </mxCell>
        <mxCell id="zZnaNhnLFqcrOaJklrno-75" value="edit user" style="rounded=1;whiteSpace=wrap;html=1;fontSize=14;" vertex="1" parent="1">
          <mxGeometry x="1060" y="-1750" width="120" height="60" as="geometry" />
        </mxCell>
        <mxCell id="zZnaNhnLFqcrOaJklrno-107" style="edgeStyle=orthogonalEdgeStyle;rounded=0;orthogonalLoop=1;jettySize=auto;html=1;" edge="1" parent="1" source="zZnaNhnLFqcrOaJklrno-76" target="zZnaNhnLFqcrOaJklrno-90">
          <mxGeometry relative="1" as="geometry" />
        </mxCell>
        <mxCell id="zZnaNhnLFqcrOaJklrno-76" value="&lt;font style=&quot;font-size: 14px;&quot;&gt;delete user&lt;/font&gt;" style="rounded=1;whiteSpace=wrap;html=1;" vertex="1" parent="1">
          <mxGeometry x="1060" y="-1650" width="120" height="60" as="geometry" />
        </mxCell>
        <mxCell id="zZnaNhnLFqcrOaJklrno-77" value="reject role change" style="rounded=1;whiteSpace=wrap;html=1;" vertex="1" parent="1">
          <mxGeometry x="1440" y="-1700" width="120" height="60" as="geometry" />
        </mxCell>
        <mxCell id="zZnaNhnLFqcrOaJklrno-78" value="approve role change" style="rounded=1;whiteSpace=wrap;html=1;" vertex="1" parent="1">
          <mxGeometry x="1440" y="-1800" width="120" height="60" as="geometry" />
        </mxCell>
        <mxCell id="zZnaNhnLFqcrOaJklrno-79" value="list role request" style="rounded=1;whiteSpace=wrap;html=1;" vertex="1" parent="1">
          <mxGeometry x="1430" y="-1900" width="120" height="60" as="geometry" />
        </mxCell>
        <mxCell id="zZnaNhnLFqcrOaJklrno-86" style="edgeStyle=orthogonalEdgeStyle;rounded=0;orthogonalLoop=1;jettySize=auto;html=1;entryX=0.5;entryY=0;entryDx=0;entryDy=0;" edge="1" parent="1" source="zZnaNhnLFqcrOaJklrno-83" target="zZnaNhnLFqcrOaJklrno-85">
          <mxGeometry relative="1" as="geometry" />
        </mxCell>
        <mxCell id="zZnaNhnLFqcrOaJklrno-83" value="process role update request function" style="rounded=1;whiteSpace=wrap;html=1;" vertex="1" parent="1">
          <mxGeometry x="1440" y="-1620" width="120" height="60" as="geometry" />
        </mxCell>
        <mxCell id="zZnaNhnLFqcrOaJklrno-85" value="&lt;font style=&quot;font-size: 14px;&quot;&gt;user management module&lt;/font&gt;" style="rounded=1;whiteSpace=wrap;html=1;" vertex="1" parent="1">
          <mxGeometry x="1440" y="-1440" width="120" height="60" as="geometry" />
        </mxCell>
        <mxCell id="zZnaNhnLFqcrOaJklrno-90" value="&lt;font style=&quot;font-size: 21px;&quot;&gt;database connector&lt;/font&gt;" style="rounded=1;whiteSpace=wrap;html=1;" vertex="1" parent="1">
          <mxGeometry x="175" y="-1500" width="1225" height="60" as="geometry" />
        </mxCell>
        <mxCell id="zZnaNhnLFqcrOaJklrno-92" style="edgeStyle=orthogonalEdgeStyle;rounded=0;orthogonalLoop=1;jettySize=auto;html=1;entryX=0.032;entryY=-0.017;entryDx=0;entryDy=0;entryPerimeter=0;" edge="1" parent="1" source="zZnaNhnLFqcrOaJklrno-18" target="zZnaNhnLFqcrOaJklrno-90">
          <mxGeometry relative="1" as="geometry" />
        </mxCell>
        <mxCell id="zZnaNhnLFqcrOaJklrno-93" style="edgeStyle=orthogonalEdgeStyle;rounded=0;orthogonalLoop=1;jettySize=auto;html=1;entryX=0.084;entryY=-0.017;entryDx=0;entryDy=0;entryPerimeter=0;" edge="1" parent="1" source="zZnaNhnLFqcrOaJklrno-19" target="zZnaNhnLFqcrOaJklrno-90">
          <mxGeometry relative="1" as="geometry" />
        </mxCell>
        <mxCell id="zZnaNhnLFqcrOaJklrno-94" style="edgeStyle=orthogonalEdgeStyle;rounded=0;orthogonalLoop=1;jettySize=auto;html=1;entryX=0.191;entryY=0.033;entryDx=0;entryDy=0;entryPerimeter=0;" edge="1" parent="1" source="zZnaNhnLFqcrOaJklrno-20" target="zZnaNhnLFqcrOaJklrno-90">
          <mxGeometry relative="1" as="geometry" />
        </mxCell>
        <mxCell id="zZnaNhnLFqcrOaJklrno-95" style="edgeStyle=orthogonalEdgeStyle;rounded=0;orthogonalLoop=1;jettySize=auto;html=1;entryX=0.308;entryY=0.017;entryDx=0;entryDy=0;entryPerimeter=0;" edge="1" parent="1" source="zZnaNhnLFqcrOaJklrno-21" target="zZnaNhnLFqcrOaJklrno-90">
          <mxGeometry relative="1" as="geometry" />
        </mxCell>
        <mxCell id="zZnaNhnLFqcrOaJklrno-96" style="edgeStyle=orthogonalEdgeStyle;rounded=0;orthogonalLoop=1;jettySize=auto;html=1;entryX=0.36;entryY=0.067;entryDx=0;entryDy=0;entryPerimeter=0;" edge="1" parent="1" source="zZnaNhnLFqcrOaJklrno-22" target="zZnaNhnLFqcrOaJklrno-90">
          <mxGeometry relative="1" as="geometry" />
        </mxCell>
        <mxCell id="zZnaNhnLFqcrOaJklrno-98" style="edgeStyle=orthogonalEdgeStyle;rounded=0;orthogonalLoop=1;jettySize=auto;html=1;entryX=0.6;entryY=-0.033;entryDx=0;entryDy=0;entryPerimeter=0;" edge="1" parent="1" source="zZnaNhnLFqcrOaJklrno-23" target="zZnaNhnLFqcrOaJklrno-90">
          <mxGeometry relative="1" as="geometry">
            <Array as="points">
              <mxPoint x="920" y="-1920" />
              <mxPoint x="920" y="-1696" />
              <mxPoint x="850" y="-1696" />
            </Array>
          </mxGeometry>
        </mxCell>
        <mxCell id="zZnaNhnLFqcrOaJklrno-99" style="edgeStyle=orthogonalEdgeStyle;rounded=0;orthogonalLoop=1;jettySize=auto;html=1;entryX=0.6;entryY=0.167;entryDx=0;entryDy=0;entryPerimeter=0;" edge="1" parent="1" source="zZnaNhnLFqcrOaJklrno-33" target="zZnaNhnLFqcrOaJklrno-90">
          <mxGeometry relative="1" as="geometry">
            <Array as="points">
              <mxPoint x="980" y="-1700" />
              <mxPoint x="850" y="-1700" />
            </Array>
          </mxGeometry>
        </mxCell>
        <mxCell id="zZnaNhnLFqcrOaJklrno-101" style="edgeStyle=orthogonalEdgeStyle;rounded=0;orthogonalLoop=1;jettySize=auto;html=1;entryX=0.008;entryY=0.617;entryDx=0;entryDy=0;entryPerimeter=0;" edge="1" parent="1" source="zZnaNhnLFqcrOaJklrno-32" target="zZnaNhnLFqcrOaJklrno-74">
          <mxGeometry relative="1" as="geometry">
            <Array as="points">
              <mxPoint x="1110" y="-1920" />
              <mxPoint x="1040" y="-1920" />
              <mxPoint x="1040" y="-1803" />
            </Array>
          </mxGeometry>
        </mxCell>
        <mxCell id="zZnaNhnLFqcrOaJklrno-105" style="edgeStyle=orthogonalEdgeStyle;rounded=0;orthogonalLoop=1;jettySize=auto;html=1;entryX=0.52;entryY=0;entryDx=0;entryDy=0;entryPerimeter=0;" edge="1" parent="1" source="zZnaNhnLFqcrOaJklrno-74" target="zZnaNhnLFqcrOaJklrno-90">
          <mxGeometry relative="1" as="geometry">
            <Array as="points">
              <mxPoint x="920" y="-1810" />
              <mxPoint x="920" y="-1640" />
              <mxPoint x="760" y="-1640" />
            </Array>
          </mxGeometry>
        </mxCell>
        <mxCell id="zZnaNhnLFqcrOaJklrno-114" style="edgeStyle=orthogonalEdgeStyle;rounded=0;orthogonalLoop=1;jettySize=auto;html=1;entryX=0.963;entryY=-0.017;entryDx=0;entryDy=0;entryPerimeter=0;" edge="1" parent="1" source="zZnaNhnLFqcrOaJklrno-77" target="zZnaNhnLFqcrOaJklrno-90">
          <mxGeometry relative="1" as="geometry">
            <Array as="points">
              <mxPoint x="1390" y="-1670" />
              <mxPoint x="1390" y="-1501" />
            </Array>
          </mxGeometry>
        </mxCell>
        <mxCell id="zZnaNhnLFqcrOaJklrno-115" style="edgeStyle=orthogonalEdgeStyle;rounded=0;orthogonalLoop=1;jettySize=auto;html=1;entryX=0.991;entryY=0.067;entryDx=0;entryDy=0;entryPerimeter=0;" edge="1" parent="1" source="zZnaNhnLFqcrOaJklrno-78" target="zZnaNhnLFqcrOaJklrno-90">
          <mxGeometry relative="1" as="geometry" />
        </mxCell>
        <mxCell id="zZnaNhnLFqcrOaJklrno-116" style="edgeStyle=orthogonalEdgeStyle;rounded=0;orthogonalLoop=1;jettySize=auto;html=1;entryX=0.992;entryY=-0.033;entryDx=0;entryDy=0;entryPerimeter=0;" edge="1" parent="1" source="zZnaNhnLFqcrOaJklrno-79" target="zZnaNhnLFqcrOaJklrno-90">
          <mxGeometry relative="1" as="geometry" />
        </mxCell>
        <mxCell id="zZnaNhnLFqcrOaJklrno-118" style="edgeStyle=orthogonalEdgeStyle;rounded=0;orthogonalLoop=1;jettySize=auto;html=1;entryX=0.961;entryY=0.05;entryDx=0;entryDy=0;entryPerimeter=0;" edge="1" parent="1" source="zZnaNhnLFqcrOaJklrno-46" target="zZnaNhnLFqcrOaJklrno-90">
          <mxGeometry relative="1" as="geometry">
            <Array as="points">
              <mxPoint x="1690" y="-1810" />
              <mxPoint x="1390" y="-1810" />
              <mxPoint x="1390" y="-1497" />
            </Array>
          </mxGeometry>
        </mxCell>
        <mxCell id="zZnaNhnLFqcrOaJklrno-119" style="edgeStyle=orthogonalEdgeStyle;rounded=0;orthogonalLoop=1;jettySize=auto;html=1;entryX=0.958;entryY=0.017;entryDx=0;entryDy=0;entryPerimeter=0;" edge="1" parent="1" source="zZnaNhnLFqcrOaJklrno-45" target="zZnaNhnLFqcrOaJklrno-90">
          <mxGeometry relative="1" as="geometry">
            <Array as="points">
              <mxPoint x="1610" y="-1690" />
              <mxPoint x="1610" y="-1800" />
              <mxPoint x="1390" y="-1800" />
              <mxPoint x="1390" y="-1499" />
            </Array>
          </mxGeometry>
        </mxCell>
        <mxCell id="zZnaNhnLFqcrOaJklrno-126" style="edgeStyle=orthogonalEdgeStyle;rounded=0;orthogonalLoop=1;jettySize=auto;html=1;entryX=1.004;entryY=0.617;entryDx=0;entryDy=0;entryPerimeter=0;" edge="1" parent="1" source="zZnaNhnLFqcrOaJklrno-85" target="zZnaNhnLFqcrOaJklrno-90">
          <mxGeometry relative="1" as="geometry" />
        </mxCell>
      </root>
    </mxGraphModel>
  </diagram>
</mxfile>
